# xmcd
#
# Track frame offsets: 
#        150
#        19675
#        38527
#        55665
#        95722
#        115942
#        133042
#        152867
#        173830
#        183737
#        208510
#
# Disc length: 3283 seconds
#
# Revision: 1
# Processed by: cddbd v1.5.2PL0 Copyright (c) Steve Scherf et al.
# Submitted via: ExactAudioCopy v0.95b3
#
DISCID=910cd10b
DTITLE=Super Chikan - Shoot That Thang
DYEAR=2001
DGENRE=Blues
TTITLE0=Guilty Man
TTITLE1=Don't Mess With The Blues
TTITLE2=Tin Top Shack
TTITLE3=Mennonite Blues
TTITLE4=Bus-Train-Rain
TTITLE5=Staingy Wid It
TTITLE6=Could Have Been Me
TTITLE7=Junky Trunk
TTITLE8=Marry Me
TTITLE9=Wrong To Sing The Blues
TTITLE10=Shoot That Thang!
EXTD=
EXTT0=
EXTT1=
EXTT2=
EXTT3=
EXTT4=
EXTT5=
EXTT6=
EXTT7=
EXTT8=
EXTT9=
EXTT10=
PLAYORDER=
